<?xml version="1.0" encoding="UTF-8"?>
<svg version="1.1" xmlns="http://www.w3.org/2000/svg" width="545" height="453">
<path d="M0 0 C179.85 0 359.7 0 545 0 C545 149.49 545 298.98 545 453 C365.15 453 185.3 453 0 453 C0 303.51 0 154.02 0 0 Z " fill="#FBFAFA" transform="translate(0,0)"/>
<path d="M0 0 C2.3125 0.875 2.3125 0.875 4.3125 2.875 C4.52129288 5.39197515 4.6061622 7.79988501 4.60302734 10.31884766 C4.60974457 11.08657501 4.61646179 11.85430237 4.62338257 12.64529419 C4.64243817 15.19328221 4.6462914 17.74100757 4.6484375 20.2890625 C4.65486332 22.06065988 4.66159152 23.83225619 4.66860962 25.60385132 C4.68060349 29.3246303 4.6842886 33.04531633 4.68310547 36.76611328 C4.68290287 41.52080984 4.71013355 46.27490467 4.74464989 51.029459 C4.76696099 54.69276633 4.77094162 58.35593025 4.76988602 62.01929855 C4.77223839 63.77109209 4.78104136 65.52288979 4.79655075 67.27461624 C4.81628376 69.73509091 4.81034352 72.19428716 4.79833984 74.65478516 C4.80957886 75.37093994 4.82081787 76.08709473 4.83239746 76.82495117 C4.74695034 83.76381121 1.96361482 89.10206141 -2.4375 94.375 C-13.41234027 104.5377485 -28.52472552 107.84528488 -42.6875 110.875 C-44.29716703 111.23175786 -45.906551 111.58979566 -47.515625 111.94921875 C-56.42891224 113.9330313 -65.33642993 115.46919996 -74.38012695 116.73413086 C-78.26252787 117.29200585 -82.06012754 117.91541543 -85.859375 118.8984375 C-89.51232752 119.83031314 -93.08174087 120.47418831 -96.8125 121 C-97.97007812 121.16757813 -99.12765625 121.33515625 -100.3203125 121.5078125 C-103.47662558 121.85200441 -106.51594902 121.94247981 -109.6875 121.875 C-109.6875 122.535 -109.6875 123.195 -109.6875 123.875 C-108.4603125 124.11992187 -107.233125 124.36484375 -105.96875 124.6171875 C-76.7482653 131.1347253 -49.7935475 144.79877609 -27.6875 164.875 C-27.02621094 165.45378906 -26.36492187 166.03257812 -25.68359375 166.62890625 C-15.25657679 176.28175954 -8.51689745 189.12468538 -2.6875 201.875 C-1.99720703 203.34839844 -1.99720703 203.34839844 -1.29296875 204.8515625 C1.44332845 211.01908952 3.51366363 217.37286737 5.5 223.8125 C5.87535889 225.00987793 5.87535889 225.00987793 6.25830078 226.23144531 C10.30002636 239.7803807 10.68530637 253.02113417 10.68310547 267.05737305 C10.68747679 270.17096773 10.72389788 273.28313921 10.76171875 276.39648438 C10.84579675 291.06995886 9.7638868 304.88767524 2.625 318.0625 C2.2832373 318.71629639 1.94147461 319.37009277 1.58935547 320.04370117 C-13.86482807 348.88287422 -38.21048801 365.66868947 -67.6875 377.875 C-68.32703613 378.14940918 -68.96657227 378.42381836 -69.62548828 378.70654297 C-82.49615695 384.2079628 -96.03065818 387.01484568 -109.6875 389.875 C-110.73196289 390.09542969 -111.77642578 390.31585938 -112.85253906 390.54296875 C-127.28491992 393.55066416 -141.79203127 395.8446312 -156.37988281 397.92993164 C-170.67729808 399.9792345 -184.91378864 402.35516858 -199.15328979 404.77035522 C-204.79291747 405.72653882 -210.43552504 406.66373517 -216.07943726 407.59425354 C-221.60609892 408.50595852 -227.13022966 409.43216072 -232.65332031 410.36523438 C-235.23376338 410.79876874 -237.81570267 411.22105955 -240.3984375 411.640625 C-258.86818787 414.81108115 -277.84685345 419.99719198 -292.6875 431.875 C-295.16075485 431.80225721 -296.2634184 431.16634663 -298.27844238 429.78201294 C-300.42078172 426.88257946 -300.12166457 423.89427051 -300.10742188 420.42529297 C-300.11589142 419.66877945 -300.12436096 418.91226593 -300.13308716 418.13282776 C-300.15651603 415.62744391 -300.15747741 413.12267273 -300.15625 410.6171875 C-300.16335186 408.87183385 -300.1710509 407.12648254 -300.17932129 405.38113403 C-300.19278234 401.71756514 -300.19432932 398.05421173 -300.18847656 394.390625 C-300.18260159 389.71323713 -300.21307209 385.03689485 -300.25359344 380.35970879 C-300.27955535 376.75123602 -300.28233978 373.14301144 -300.27870178 369.53445816 C-300.28038743 367.81139642 -300.28997624 366.08832253 -300.30784607 364.36535263 C-300.40564223 353.7631788 -299.9560462 345.87701048 -292.6953125 337.60546875 C-292.07398438 337.09628906 -291.45265625 336.58710938 -290.8125 336.0625 C-290.19632813 335.54042969 -289.58015625 335.01835937 -288.9453125 334.48046875 C-282.95227749 330.21898538 -277.22713475 327.82890391 -270.1875 325.875 C-269.27967773 325.61936279 -268.37185547 325.36372559 -267.43652344 325.1003418 C-258.01096225 322.54107813 -248.46951893 320.91052758 -238.83178711 319.38842773 C-235.11698492 318.78184112 -231.41225871 318.1228746 -227.70703125 317.4609375 C-218.19614472 315.76704866 -208.66268307 314.22200723 -199.125 312.6875 C-197.41990361 312.41222251 -195.71482539 312.13683238 -194.00976562 311.86132812 C-189.90255101 311.19792732 -185.79509748 310.53602588 -181.6875 309.875 C-182.39745117 309.61887939 -183.10740234 309.36275879 -183.83886719 309.09887695 C-212.92989425 298.56871007 -240.76335378 286.07411067 -263.23876953 264.27246094 C-264.52606835 263.0307187 -265.83760085 261.81420967 -267.15234375 260.6015625 C-280.83342215 247.66585041 -290.46617764 230.46219974 -296.6875 212.875 C-297.20685443 211.60356156 -297.72748969 210.33264475 -298.25 209.0625 C-302.3320925 197.98253463 -304.44588099 186.65896023 -304.6875 174.875 C-304.71328125 173.91174805 -304.7390625 172.94849609 -304.765625 171.95605469 C-305.53268782 140.09418292 -297.3382241 115.46828499 -275.6875 91.875 C-273.15263233 89.34511242 -270.50502242 87.08332839 -267.6875 84.875 C-266.81738281 84.18019531 -265.94726562 83.48539062 -265.05078125 82.76953125 C-240.77086555 63.93557795 -211.50761361 52.95369543 -181.42578125 47.39453125 C-178.37117795 46.81498455 -175.3345527 46.16776397 -172.29443359 45.51708984 C-164.39878047 43.82960313 -156.49014812 42.21778124 -148.5625 40.6875 C-147.71067139 40.52072754 -146.85884277 40.35395508 -145.98120117 40.18212891 C-141.32278878 39.29294102 -136.72161933 38.60404687 -131.99267578 38.2253418 C-129.50879726 37.89899722 -129.50879726 37.89899722 -126.46899414 36.94482422 C-122.2893073 35.76234712 -118.13891904 34.98239607 -113.86328125 34.24609375 C-112.11224227 33.93570596 -110.36135317 33.62447177 -108.6105957 33.3125 C-107.69605621 33.15007813 -106.78151672 32.98765625 -105.83926392 32.8203125 C-52.32794576 25.00200286 -52.32794576 25.00200286 -5.0546875 1.6640625 C-2.6875 -0.125 -2.6875 -0.125 0 0 Z " fill="#10112A" transform="translate(413.6875,16.125)"/>
<path d="M0 0 C2.3125 0.875 2.3125 0.875 4.3125 2.875 C4.52129288 5.39197515 4.6061622 7.79988501 4.60302734 10.31884766 C4.60974457 11.08657501 4.61646179 11.85430237 4.62338257 12.64529419 C4.64243817 15.19328221 4.6462914 17.74100757 4.6484375 20.2890625 C4.65486332 22.06065988 4.66159152 23.83225619 4.66860962 25.60385132 C4.68060349 29.3246303 4.6842886 33.04531633 4.68310547 36.76611328 C4.68290287 41.52080984 4.71013355 46.27490467 4.74464989 51.029459 C4.76696099 54.69276633 4.77094162 58.35593025 4.76988602 62.01929855 C4.77223839 63.77109209 4.78104136 65.52288979 4.79655075 67.27461624 C4.81628376 69.73509091 4.81034352 72.19428716 4.79833984 74.65478516 C4.80957886 75.37093994 4.82081787 76.08709473 4.83239746 76.82495117 C4.74695034 83.76381121 1.96361482 89.10206141 -2.4375 94.375 C-13.41234027 104.5377485 -28.52472552 107.84528488 -42.6875 110.875 C-44.29716703 111.23175786 -45.906551 111.58979566 -47.515625 111.94921875 C-56.42891224 113.9330313 -65.33642993 115.46919996 -74.38012695 116.73413086 C-78.81937832 117.37202153 -83.06049301 118.21964519 -87.40283203 119.36352539 C-90.22828516 119.99606699 -93.05291584 120.38581669 -95.921875 120.77734375 C-104.42270992 121.93809577 -112.85394374 123.43836985 -121.29638672 124.96166992 C-123.97420538 125.44411294 -126.6530619 125.9204772 -129.33203125 126.39648438 C-131.03912721 126.70276453 -132.74616094 127.00939184 -134.453125 127.31640625 C-135.25196106 127.45808731 -136.05079712 127.59976837 -136.87384033 127.7457428 C-140.89783086 128.43066701 -140.89783086 128.43066701 -144.6875 129.875 C-146.60702784 130.19882651 -148.53285338 130.48568546 -150.4609375 130.75390625 C-157.490504 131.79915541 -164.38374235 133.24245617 -171.3125 134.8125 C-172.44945312 135.06451172 -173.58640625 135.31652344 -174.7578125 135.57617188 C-184.59339477 137.78128235 -194.33475383 140.06480343 -203.6875 143.875 C-204.30641113 144.12685059 -204.92532227 144.37870117 -205.56298828 144.63818359 C-234.74021254 156.75048594 -260.38314225 173.13298509 -273.24609375 203.19921875 C-278.70955674 217.13178969 -280.27172352 232.79304503 -274.6875 246.875 C-275.09765625 249.1015625 -275.09765625 249.1015625 -275.6875 250.875 C-284.81430044 238.98103134 -291.6759249 227.04233731 -296.6875 212.875 C-297.20685443 211.60356156 -297.72748969 210.33264475 -298.25 209.0625 C-302.3320925 197.98253463 -304.44588099 186.65896023 -304.6875 174.875 C-304.71328125 173.91174805 -304.7390625 172.94849609 -304.765625 171.95605469 C-305.53268782 140.09418292 -297.3382241 115.46828499 -275.6875 91.875 C-273.15263233 89.34511242 -270.50502242 87.08332839 -267.6875 84.875 C-266.81738281 84.18019531 -265.94726562 83.48539062 -265.05078125 82.76953125 C-240.77086555 63.93557795 -211.50761361 52.95369543 -181.42578125 47.39453125 C-178.37117795 46.81498455 -175.3345527 46.16776397 -172.29443359 45.51708984 C-164.39878047 43.82960313 -156.49014812 42.21778124 -148.5625 40.6875 C-147.71067139 40.52072754 -146.85884277 40.35395508 -145.98120117 40.18212891 C-141.32278878 39.29294102 -136.72161933 38.60404687 -131.99267578 38.2253418 C-129.50879726 37.89899722 -129.50879726 37.89899722 -126.46899414 36.94482422 C-122.2893073 35.76234712 -118.13891904 34.98239607 -113.86328125 34.24609375 C-112.11224227 33.93570596 -110.36135317 33.62447177 -108.6105957 33.3125 C-107.69605621 33.15007813 -106.78151672 32.98765625 -105.83926392 32.8203125 C-52.32794576 25.00200286 -52.32794576 25.00200286 -5.0546875 1.6640625 C-2.6875 -0.125 -2.6875 -0.125 0 0 Z " fill="#CD2222" transform="translate(413.6875,16.125)"/>
<path d="M0 0 C2.80988593 3.58896615 4.6000456 7.29797852 6.3125 11.5 C6.61373779 12.23831055 6.91497559 12.97662109 7.2253418 13.73730469 C9.51559677 19.49627786 11.49968744 25.32439381 13.3125 31.25 C13.55460205 32.02794922 13.7967041 32.80589844 14.04614258 33.60742188 C18.01539493 47.05947712 18.37278874 60.2585871 18.37060547 74.18237305 C18.37497679 77.29596773 18.41139788 80.40813921 18.44921875 83.52148438 C18.53329675 98.19495886 17.4513868 112.01267524 10.3125 125.1875 C9.9707373 125.84129639 9.62897461 126.49509277 9.27685547 127.16870117 C-6.17732807 156.00787422 -30.52298801 172.79368947 -60 185 C-60.63953613 185.27440918 -61.27907227 185.54881836 -61.93798828 185.83154297 C-74.80865695 191.3329628 -88.34315818 194.13984568 -102 197 C-103.04446289 197.22042969 -104.08892578 197.44085938 -105.16503906 197.66796875 C-119.59741992 200.67566416 -134.10453127 202.9696312 -148.69238281 205.05493164 C-162.98979808 207.1042345 -177.22628864 209.48016858 -191.46578979 211.89535522 C-197.10541747 212.85153882 -202.74802504 213.78873517 -208.39193726 214.71925354 C-213.91859892 215.63095852 -219.44272966 216.55716072 -224.96582031 217.49023438 C-227.54626338 217.92376874 -230.12820267 218.34605955 -232.7109375 218.765625 C-251.18068787 221.93608115 -270.15935345 227.12219198 -285 239 C-287.47325485 238.92725721 -288.5759184 238.29134663 -290.59094238 236.90701294 C-292.73328172 234.00757946 -292.43416457 231.01927051 -292.41992188 227.55029297 C-292.42839142 226.79377945 -292.43686096 226.03726593 -292.44558716 225.25782776 C-292.46901603 222.75244391 -292.46997741 220.24767273 -292.46875 217.7421875 C-292.47585186 215.99683385 -292.4835509 214.25148254 -292.49182129 212.50613403 C-292.50528234 208.84256514 -292.50682932 205.17921173 -292.50097656 201.515625 C-292.49510159 196.83823713 -292.52557209 192.16189485 -292.56609344 187.48470879 C-292.59205535 183.87623602 -292.59483978 180.26801144 -292.59120178 176.65945816 C-292.59288743 174.93639642 -292.60247624 173.21332253 -292.62034607 171.49035263 C-292.71814223 160.8881788 -292.2685462 153.00201048 -285.0078125 144.73046875 C-284.07582031 143.96669922 -284.07582031 143.96669922 -283.125 143.1875 C-282.50882813 142.66542969 -281.89265625 142.14335937 -281.2578125 141.60546875 C-275.26477749 137.34398538 -269.53963475 134.95390391 -262.5 133 C-261.59217773 132.74436279 -260.68435547 132.48872559 -259.74902344 132.2253418 C-250.32444912 129.66634609 -240.78383796 128.03437641 -231.14672852 126.5144043 C-227.41759584 125.9047928 -223.69960933 125.23746437 -219.98046875 124.5703125 C-210.69740181 122.91442284 -201.38479823 121.47772659 -192.0625 120.0625 C-190.33241001 119.7984428 -188.60234853 119.53419867 -186.87231445 119.26977539 C-183.46024216 118.7484058 -180.04803759 118.22791503 -176.63574219 117.70800781 C-172.71723159 117.11036361 -168.79973525 116.50641352 -164.8828125 115.8984375 C-163.83907471 115.73657959 -162.79533691 115.57472168 -161.7199707 115.40795898 C-159.70541529 115.09541987 -157.69092902 114.78243475 -155.67651367 114.46899414 C-150.34370974 113.64571836 -145.00768596 112.85362921 -139.66444397 112.10145569 C-136.64432244 111.67622832 -133.62500903 111.24537466 -130.60562134 110.81497192 C-129.15308409 110.60986833 -127.70011572 110.40778778 -126.24667358 110.209198 C-115.94845507 108.8020811 -106.04679745 106.6486886 -96 104 C-94.35299545 103.60465896 -92.70479917 103.21419612 -91.0546875 102.83203125 C-61.2419171 95.68404151 -28.72560827 81.02032411 -10.81640625 55.03515625 C-5.07054056 45.43400003 0.28903974 34.97380843 0.1953125 23.6328125 C0.1924826 22.95322479 0.18965271 22.27363708 0.18673706 21.57345581 C0.17562964 19.42378392 0.15054391 17.27454386 0.125 15.125 C0.11495795 13.65886023 0.10583425 12.19271386 0.09765625 10.7265625 C0.07572159 7.15090369 0.04125814 3.57549406 0 0 Z " fill="#C72021" transform="translate(406,209)"/>
<path d="M0 0 C1.16187873 0.67036038 2.3123092 1.36079691 3.453125 2.06640625 C4.11304443 2.45546143 4.77296387 2.8445166 5.45288086 3.24536133 C7.88184734 4.68699567 10.29193661 6.15773253 12.703125 7.62890625 C14.85509884 8.92639497 17.00747094 10.22322329 19.16015625 11.51953125 C24.56918017 14.78276929 29.9633134 18.06993733 35.35281372 21.36529541 C39.33962059 23.80137421 43.33650058 26.22004881 47.33984375 28.62890625 C48.37359131 29.2525708 49.40733887 29.87623535 50.47241211 30.51879883 C52.39453369 31.67799133 54.31839925 32.83429934 56.24438477 33.98706055 C72.68142169 43.92860762 72.68142169 43.92860762 75.703125 50.62890625 C76.13278571 56.74330868 74.58016947 60.8571592 70.703125 65.62890625 C67.91276149 67.72781932 64.93040651 69.41820032 61.890625 71.12890625 C60.08788041 72.17594563 58.28582457 73.22417158 56.484375 74.2734375 C55.54078125 74.81822754 54.5971875 75.36301758 53.625 75.92431641 C48.66923581 78.81545491 43.78334505 81.82024322 38.890625 84.81640625 C28.27120323 91.29833387 28.27120323 91.29833387 23.40625 94.19921875 C22.76905029 94.57933105 22.13185059 94.95944336 21.4753418 95.35107422 C20.27051076 96.06707893 19.06369487 96.77975625 17.85473633 97.48876953 C14.84932657 99.267662 11.96557753 101.12599526 9.13671875 103.17578125 C2.40354702 107.98926317 -2.96507579 110.91077553 -11.5703125 110.26171875 C-15.42487532 109.36710675 -17.13501042 107.90897664 -19.296875 104.62890625 C-19.65859299 104.09410141 -20.02031097 103.55929657 -20.39299011 103.00828552 C-21.78247826 99.35060817 -21.58294541 95.66922586 -21.5715332 91.80883789 C-21.57664413 90.91895676 -21.58175507 90.02907562 -21.58702087 89.11222839 C-21.60091904 86.17110465 -21.59995996 83.23021518 -21.59765625 80.2890625 C-21.60154299 78.24409396 -21.60587762 76.19912623 -21.61064148 74.15415955 C-21.61810413 69.86780175 -21.61781202 65.58152632 -21.61254883 61.29516602 C-21.60675351 55.80272834 -21.62368659 50.31062781 -21.6468935 44.81824589 C-21.66162617 40.59490488 -21.66250318 36.37164516 -21.65938377 32.148283 C-21.6598972 30.12328867 -21.6651389 28.09828981 -21.67519569 26.07332039 C-21.68753389 23.24144716 -21.68078411 20.41023186 -21.66918945 17.57836914 C-21.67683319 16.74236176 -21.68447693 15.90635437 -21.69235229 15.04501343 C-21.63848036 9.09129435 -20.30441858 5.88739278 -16.296875 1.37890625 C-11.60614676 -2.72548096 -5.42462778 -2.25597672 0 0 Z " fill="#EC2424" transform="translate(243.296875,184.37109375)"/>
<path d="M0 0 C1.62695539 3.86401905 2.11673175 7.0846124 2.0625 11.2265625 C2.05347656 12.12197754 2.04445313 13.01739258 2.03515625 13.93994141 C2.02355469 14.61976074 2.01195312 15.29958008 2 16 C-1.22754814 16.67466746 -4.45726935 17.33830569 -7.6875 18 C-8.59951172 18.19078125 -9.51152344 18.3815625 -10.45117188 18.578125 C-11.78051758 18.84882812 -11.78051758 18.84882812 -13.13671875 19.125 C-13.94842529 19.29257813 -14.76013184 19.46015625 -15.59643555 19.6328125 C-18.10061865 20.0153713 -20.47075502 20.06298509 -23 20 C-25.4021604 15.1956792 -25.61122229 10.26896105 -26 5 C-21.78507923 3.10657856 -17.52105389 2.19245993 -13 1.375 C-12.30132812 1.2409375 -11.60265625 1.106875 -10.8828125 0.96875 C-7.21208312 0.29001136 -3.73380565 -0.16043696 0 0 Z " fill="#FBF0F0" transform="translate(301,70)"/>
<path d="M0 0 C1.85800334 3.48375627 2.11283285 6.32597475 2.0625 10.1953125 C2.05347656 11.09523926 2.04445313 11.99516602 2.03515625 12.92236328 C2.02355469 13.6079834 2.01195312 14.29360352 2 15 C-1.57989022 15.86905722 -5.16433193 16.71762696 -8.75 17.5625 C-9.76578125 17.80935547 -10.7815625 18.05621094 -11.828125 18.31054688 C-12.8078125 18.53935547 -13.7875 18.76816406 -14.796875 19.00390625 C-16.14797363 19.32597046 -16.14797363 19.32597046 -17.52636719 19.65454102 C-20.04298464 20.00600309 -21.61250145 19.80151737 -24 19 C-26.29612756 9.58997722 -26.29612756 9.58997722 -26 5 C-21.52484496 3.40914118 -17.09360335 2.30528099 -12.4375 1.375 C-10.51744141 0.98441406 -10.51744141 0.98441406 -8.55859375 0.5859375 C-5.60437646 0.09951314 -2.97897684 -0.12579173 0 0 Z " fill="#FCF0F0" transform="translate(357,59)"/>
<path d="M0 0 C0.34171006 1.37294222 0.67291117 2.74850118 1 4.125 C1.185625 4.89070313 1.37125 5.65640625 1.5625 6.4453125 C2.0573244 9.33473352 2.06784992 12.07397199 2 15 C-1.22669416 15.84311119 -4.45670918 16.67273868 -7.6875 17.5 C-8.59951172 17.73847656 -9.51152344 17.97695312 -10.45117188 18.22265625 C-11.78051758 18.56103516 -11.78051758 18.56103516 -13.13671875 18.90625 C-13.94842529 19.11572266 -14.76013184 19.32519531 -15.59643555 19.54101562 C-18.118993 20.02272289 -20.43808183 20.07974843 -23 20 C-23.70365602 18.4447088 -24.38729378 16.88035173 -25.0625 15.3125 C-25.44535156 14.44238281 -25.82820312 13.57226562 -26.22265625 12.67578125 C-27.0935848 9.67786136 -26.85006226 7.96719847 -26 5 C-23.81426438 4.34822031 -21.6263177 3.70385326 -19.4375 3.0625 C-18.21933594 2.70285156 -17.00117188 2.34320313 -15.74609375 1.97265625 C-10.49548584 0.60935972 -5.42646667 -0.16443838 0 0 Z " fill="#FBF2F2" transform="translate(245,81)"/>
<path d="M0 0 C4.40774487 8.261959 4.40774487 8.261959 5 13 C0.86583459 15.51714117 -3.32328182 17.91572057 -7.5625 20.25 C-8.22185547 20.62640625 -8.88121094 21.0028125 -9.56054688 21.390625 C-14.46387288 24.07143841 -14.46387288 24.07143841 -17.12353516 23.71704102 C-19.81284456 22.68939312 -20.46005295 21.18401102 -21.8125 18.6875 C-22.25207031 17.90761719 -22.69164062 17.12773438 -23.14453125 16.32421875 C-24.15061851 13.59078533 -24.05505847 12.67638026 -23 10 C-21.31347656 8.62792969 -21.31347656 8.62792969 -19.140625 7.421875 C-18.35429687 6.98359375 -17.56796875 6.5453125 -16.7578125 6.09375 C-15.93023437 5.6503125 -15.10265625 5.206875 -14.25 4.75 C-13.03183594 4.06164062 -13.03183594 4.06164062 -11.7890625 3.359375 C-7.59394996 1.06367824 -4.87520923 -0.28023362 0 0 Z " fill="#F9F3F3" transform="translate(189,98)"/>
<path d="M0 0 C1.94090826 1.94090826 1.39919435 5.47293902 1.5625 8.0625 C1.68818359 9.99802734 1.68818359 9.99802734 1.81640625 11.97265625 C1.87699219 12.97167969 1.93757813 13.97070312 2 15 C-6.3176764 17.03995567 -14.39252952 18.86910382 -23 18 C-24 17 -24 17 -24.1328125 13.875 C-24.13023437 12.59625 -24.12765625 11.3175 -24.125 10 C-24.12757813 8.72125 -24.13015625 7.4425 -24.1328125 6.125 C-24 3 -24 3 -23 2 C-20.45652939 1.59387474 -17.930639 1.24499667 -15.375 0.9375 C-14.67503906 0.84662109 -13.97507813 0.75574219 -13.25390625 0.66210938 C-8.81556555 0.11452189 -4.48109024 -0.17855244 0 0 Z " fill="#FBF2F2" transform="translate(251,380)"/>
<path d="M0 0 C0.38854209 2.28940956 0.7604628 4.58164574 1.125 6.875 C1.33382813 8.15117187 1.54265625 9.42734375 1.7578125 10.7421875 C1.83773438 11.81726563 1.91765625 12.89234375 2 14 C-0.23461533 16.23461533 -0.94566925 16.36415473 -3.95703125 16.8515625 C-4.74013672 16.98046875 -5.52324219 17.109375 -6.33007812 17.2421875 C-7.14927734 17.36851562 -7.96847656 17.49484375 -8.8125 17.625 C-9.62009766 17.7590625 -10.42769531 17.893125 -11.25976562 18.03125 C-15.20780814 18.66500621 -18.98713749 19.17907297 -23 19 C-24.38592993 14.92883083 -25.12599572 11.55983398 -25.0625 7.24609375 C-25.05347656 6.44743896 -25.04445313 5.64878418 -25.03515625 4.82592773 C-25.02355469 4.22337158 -25.01195312 3.62081543 -25 3 C-23.74703125 2.79503906 -22.4940625 2.59007812 -21.203125 2.37890625 C-19.55206909 2.10685726 -17.90102821 1.83471707 -16.25 1.5625 C-15.0125 1.36043945 -15.0125 1.36043945 -13.75 1.15429688 C-12.95078125 1.02216797 -12.1515625 0.89003906 -11.328125 0.75390625 C-10.22839355 0.57323608 -10.22839355 0.57323608 -9.10644531 0.38891602 C-6.98691759 0.03460002 -6.98691759 0.03460002 -4.91699219 -0.60961914 C-3 -1 -3 -1 0 0 Z " fill="#FBF3F3" transform="translate(305,371)"/>
<path d="M0 0 C1.36328125 1.671875 1.36328125 1.671875 2.3125 3.75 C2.80169922 4.76320313 2.80169922 4.76320313 3.30078125 5.796875 C4.09528323 8.30022204 4.04831453 10.3883161 4 13 C0.56631406 14.50884213 -2.87253549 16.00553401 -6.3125 17.5 C-7.28896484 17.92925781 -8.26542969 18.35851562 -9.27148438 18.80078125 C-10.67817383 19.40986328 -10.67817383 19.40986328 -12.11328125 20.03125 C-12.97735596 20.40830078 -13.84143066 20.78535156 -14.73168945 21.17382812 C-17 22 -17 22 -20 22 C-20.70088156 20.25531628 -21.38524009 18.50398839 -22.0625 16.75 C-22.44535156 15.77546875 -22.82820313 14.8009375 -23.22265625 13.796875 C-24.04622707 10.83367545 -24.12590466 9.79579355 -23 7 C-21.31347656 5.7956543 -21.31347656 5.7956543 -19.140625 4.82421875 C-18.35429687 4.47166016 -17.56796875 4.11910156 -16.7578125 3.75585938 C-15.93023437 3.40330078 -15.10265625 3.05074219 -14.25 2.6875 C-13.43789063 2.31560547 -12.62578125 1.94371094 -11.7890625 1.56054688 C-3.97556709 -1.85626667 -3.97556709 -1.85626667 0 0 Z " fill="#FCF2F2" transform="translate(355,355)"/>
<path d="M0 0 C1 1 1 1 1.09765625 4.37890625 C1.09098369 5.77347077 1.07902532 7.16801743 1.0625 8.5625 C1.05798828 9.27341797 1.05347656 9.98433594 1.04882812 10.71679688 C1.03700864 12.47790013 1.01907263 14.23896036 1 16 C-1.68625454 16.50763865 -4.37368383 17.00627197 -7.0625 17.5 C-7.81466797 17.64308594 -8.56683594 17.78617187 -9.34179688 17.93359375 C-13.97740175 18.776431 -18.2889615 19.15015262 -23 19 C-24.03590199 13.94997778 -24.10251672 9.12583611 -24 4 C-19.82298441 2.5005585 -15.82524145 1.52772187 -11.4375 0.875 C-9.79587891 0.62363281 -9.79587891 0.62363281 -8.12109375 0.3671875 C-5.36276661 0.04267843 -2.77168536 -0.15036268 0 0 Z " fill="#FAF3F3" transform="translate(198,388)"/>
<path d="M0 0 C2.45375178 1.361533 3.88773527 2.96735235 5.671875 5.12890625 C6.28546875 5.86238281 6.8990625 6.59585938 7.53125 7.3515625 C7.99015625 7.91746094 8.4490625 8.48335937 8.921875 9.06640625 C7.32045803 12.91161648 4.82559432 15.4958018 1.984375 18.50390625 C-1.18801689 21.86318426 -3.84805183 25.01105866 -6.078125 29.06640625 C-9.18254531 27.67595635 -11.4437693 26.05069027 -13.890625 23.69140625 C-14.51582031 23.10617188 -15.14101562 22.5209375 -15.78515625 21.91796875 C-17.078125 20.06640625 -17.078125 20.06640625 -17.04296875 18.1796875 C-15.71231261 15.26517344 -13.88411562 13.08315995 -11.828125 10.62890625 C-11.05984375 9.70207031 -10.2915625 8.77523437 -9.5 7.8203125 C-8.70078125 6.91152344 -7.9015625 6.00273437 -7.078125 5.06640625 C-6.23765625 4.10605469 -5.3971875 3.14570313 -4.53125 2.15625 C-2.078125 0.06640625 -2.078125 0.06640625 0 0 Z " fill="#FAF3F3" transform="translate(140.078125,129.93359375)"/>
<path d="M0 0 C3.05297101 1.32709446 4.84224531 2.62795358 6.8125 5.3125 C7.25207031 5.88613281 7.69164062 6.45976562 8.14453125 7.05078125 C9.34425592 9.78440047 8.96018824 11.2019854 8 14 C6.3984375 16.02734375 6.3984375 16.02734375 4.375 17.9375 C3.65699219 18.61683594 2.93898438 19.29617188 2.19921875 19.99609375 C1.47347656 20.65738281 0.74773437 21.31867188 0 22 C-0.65355469 22.60972656 -1.30710937 23.21945312 -1.98046875 23.84765625 C-6.58436761 28 -6.58436761 28 -10 28 C-11.640625 25.953125 -11.640625 25.953125 -13.25 23.25 C-14.06210937 21.92742187 -14.06210937 21.92742187 -14.890625 20.578125 C-16 18 -16 18 -15.8984375 15.87890625 C-14.76148107 13.50118433 -13.42192949 12.34322096 -11.375 10.6875 C-7.34974871 7.33070199 -3.65247537 3.75520124 0 0 Z " fill="#FBF1F1" transform="translate(394,323)"/>
<path d="M0 0 C0.9171288 5.38813172 1.09016808 10.54163635 1 16 C-1.54115002 16.95972174 -4.08289457 17.91781494 -6.625 18.875 C-7.33785156 19.14441406 -8.05070313 19.41382813 -8.78515625 19.69140625 C-9.48769531 19.95566406 -10.19023437 20.21992188 -10.9140625 20.4921875 C-11.8723999 20.85352783 -11.8723999 20.85352783 -12.85009766 21.22216797 C-15.54898789 22.19862315 -18.2771842 23.09239473 -21 24 C-21 18.72 -21 13.44 -21 8 C-5.34782609 0 -5.34782609 0 0 0 Z " fill="#F9F2F2" transform="translate(147,399)"/>
<path d="M0 0 C1.44207941 2.88415883 1.09394887 5.41721528 1.0625 8.625 C1.05347656 9.81351563 1.04445313 11.00203125 1.03515625 12.2265625 C1.02355469 13.14179687 1.01195312 14.05703125 1 15 C-1.17969233 16.32716357 -3.36731621 17.63640322 -5.5625 18.9375 C-6.17158203 19.31068359 -6.78066406 19.68386719 -7.40820312 20.06835938 C-11.66756987 22.56989223 -15.07072433 23.600329 -20 24 C-20.33951619 22.43883181 -20.67132544 20.87598662 -21 19.3125 C-21.185625 18.44238281 -21.37125 17.57226562 -21.5625 16.67578125 C-21.98972047 14.06287036 -22.07616201 11.64186962 -22 9 C-21.4652002 8.76289307 -20.93040039 8.52578613 -20.37939453 8.28149414 C-17.96104794 7.20898029 -15.54302048 6.13574885 -13.125 5.0625 C-12.28324219 4.68931641 -11.44148438 4.31613281 -10.57421875 3.93164062 C-9.76855469 3.57392578 -8.96289062 3.21621094 -8.1328125 2.84765625 C-7.38918457 2.51773682 -6.64555664 2.18781738 -5.87939453 1.84790039 C-1.7834725 0 -1.7834725 0 0 0 Z " fill="#FCF3F2" transform="translate(407,41)"/>
<path d="M0 0 C3.25696479 0.41755959 4.63443291 0.63443291 7 3 C7.18784482 5.55991902 7.25189805 8.0106964 7.22705078 10.57080078 C7.22734283 11.35137848 7.22763489 12.13195618 7.22793579 12.93618774 C7.22653968 15.52267478 7.21096542 18.10887564 7.1953125 20.6953125 C7.19158337 22.48607221 7.18873592 24.27683396 7.18673706 26.06759644 C7.17909275 30.78588472 7.15943745 35.50405031 7.1373291 40.22229004 C7.11688782 45.03489522 7.10773903 49.84752019 7.09765625 54.66015625 C7.07619228 64.10682481 7.04204675 73.55340221 7 83 C6.67 83 6.34 83 6 83 C4.351854 74.67429477 3.71415765 66.72814535 3.8125 58.25 C3.81314453 57.17878906 3.81378906 56.10757813 3.81445312 55.00390625 C3.84000995 50.38664032 3.94141234 45.87427662 4.57421875 41.296875 C4.71472656 40.20890625 4.85523438 39.1209375 5 38 C4.67 37.67 4.34 37.34 4 37 C3.91152257 34.47905924 3.88472699 31.98569107 3.90234375 29.46484375 C3.9037587 28.71159317 3.90517365 27.95834259 3.90663147 27.18226624 C3.91224624 24.7673044 3.92480117 22.35243399 3.9375 19.9375 C3.9425131 18.30403779 3.94707634 16.67057414 3.95117188 15.03710938 C3.96222046 11.02470415 3.97949494 7.01236759 4 3 C0.44920141 3.66241789 -2.67457466 4.57481771 -6 6 C-4 4 -2 2 0 0 Z " fill="#E82B26" transform="translate(411,16)"/>
<path d="M0 0 C2.52588702 2.36292656 3.88820837 3.66462511 5 7 C5.99 6.34 6.98 5.68 8 5 C9.72274487 7.58411731 10.68895522 9.54902656 11.6875 12.4375 C11.95949219 13.19933594 12.23148438 13.96117187 12.51171875 14.74609375 C13.04729142 17.21829721 12.80445309 18.62983284 12 21 C0 4.89320388 0 4.89320388 0 0 Z " fill="#A61F23" transform="translate(126,246)"/>
<path d="M0 0 C0.66 0.33 1.32 0.66 2 1 C0.48490064 3.7909725 -0.89712569 5.90569855 -3.25 8.0625 C-6.89353298 11.4852128 -8.98440789 16.01211493 -11.3515625 20.35546875 C-13 23 -13 23 -16 25 C-14.59054877 15.08031793 -6.66282342 7.00894412 0 0 Z " fill="#B12426" transform="translate(136,111)"/>
<path d="M0 0 C-1.32 0.33 -2.64 0.66 -4 1 C-4 1.66 -4 2.32 -4 3 C-7.36890509 4.04173045 -10.74584463 5.05456411 -14.125 6.0625 C-15.55199219 6.50432617 -15.55199219 6.50432617 -17.0078125 6.95507812 C-22.01376351 8.43252895 -25.82361748 9.52502852 -31 8 C-25.79186756 5.17084311 -20.0524804 3.90053964 -14.375 2.3125 C-13.21742188 1.97927734 -12.05984375 1.64605469 -10.8671875 1.30273438 C-9.76375 0.99271484 -8.6603125 0.68269531 -7.5234375 0.36328125 C-6.51200684 0.07751221 -5.50057617 -0.20825684 -4.45849609 -0.50268555 C-2 -1 -2 -1 0 0 Z " fill="#E6403E" transform="translate(382,33)"/>
<path d="M0 0 C-0.99 0 -1.98 0 -3 0 C-3 0.66 -3 1.32 -3 2 C-6.68427919 2.70555768 -10.37275512 3.38615838 -14.0625 4.0625 C-15.10083984 4.26166016 -16.13917969 4.46082031 -17.20898438 4.66601562 C-22.81266349 5.6800147 -27.42141899 6.25814806 -33 5 C-33 4.67 -33 4.34 -33 4 C-28.94504777 3.25903024 -24.88829738 2.52896224 -20.82958984 1.80883789 C-19.44982377 1.56246266 -18.07058034 1.31314122 -16.69189453 1.06079102 C-14.70746313 0.69809934 -12.72093251 0.34695341 -10.734375 -0.00390625 C-9.54038086 -0.21861572 -8.34638672 -0.4333252 -7.11621094 -0.65454102 C-4.3115697 -0.9654598 -2.62153935 -0.93342689 0 0 Z " fill="#E0504F" transform="translate(318,49)"/>
<path d="M0 0 C-0.33 0.99 -0.66 1.98 -1 3 C-2.03125 2.938125 -3.0625 2.87625 -4.125 2.8125 C-8.26356116 3.01275296 -10.38864506 4.11224628 -14 6 C-14.99 5.67 -15.98 5.34 -17 5 C-17.33 5.66 -17.66 6.32 -18 7 C-22.94877422 8.05390562 -28.11052208 8.46684337 -33 7 C-33 6.67 -33 6.34 -33 6 C-28.94426283 5.14038491 -24.88745351 4.28604533 -20.82958984 3.43652344 C-19.45005509 3.14694746 -18.07081877 2.8559459 -16.69189453 2.56347656 C-14.7068278 2.14270539 -12.72073512 1.7271167 -10.734375 1.3125 C-9.54038086 1.06113281 -8.34638672 0.80976562 -7.11621094 0.55078125 C-4 0 -4 0 0 0 Z " fill="#E4524F" transform="translate(351,41)"/>
<path d="M0 0 C0.66 0.33 1.32 0.66 2 1 C-1.38872633 4.58806317 -4.76141332 7.45684799 -9 10 C-9.66 10 -10.32 10 -11 10 C-11 10.66 -11 11.32 -11 12 C-12.96875 13.7265625 -12.96875 13.7265625 -15.5 15.625 C-16.75296875 16.57246094 -16.75296875 16.57246094 -18.03125 17.5390625 C-18.6809375 18.02117187 -19.330625 18.50328125 -20 19 C-20 16 -20 16 -17.91015625 13.73046875 C-16.97042969 12.89128906 -16.03070313 12.05210938 -15.0625 11.1875 C-14.32229614 10.52645264 -14.32229614 10.52645264 -13.56713867 9.85205078 C-9.31504867 6.12507033 -4.82642087 2.93160379 0 0 Z " fill="#B82A2C" transform="translate(161,90)"/>
<path d="M0 0 C0.33 0 0.66 0 1 0 C2.06908549 10.63146128 -0.55875074 20.62910451 -6.69921875 29.4375 C-7.12847656 29.953125 -7.55773437 30.46875 -8 31 C-7.41538025 27.57063258 -6.51100062 24.71640512 -5.0625 21.5625 C-2.79693975 16.12023027 -2.07245418 10.73512008 -1.39453125 4.90625 C-1 2 -1 2 0 0 Z " fill="#1D0B15" transform="translate(406,228)"/>
<path d="M0 0 C0.33 0 0.66 0 1 0 C1.125 2.875 1.125 2.875 1 6 C-1.37306314 8.37306314 -2.56306505 8.48276573 -5.8125 9.0625 C-6.66457031 9.21847656 -7.51664062 9.37445313 -8.39453125 9.53515625 C-9.68423828 9.76525391 -9.68423828 9.76525391 -11 10 C-12.29550781 10.29003906 -12.29550781 10.29003906 -13.6171875 10.5859375 C-16.60711488 11.10549865 -19.05001811 10.61743807 -22 10 C-22 9.67 -22 9.34 -22 9 C-18.89688362 8.32838005 -15.79234832 7.66356325 -12.6875 7 C-11.36588867 6.71382813 -11.36588867 6.71382813 -10.01757812 6.421875 C-9.17001953 6.24140625 -8.32246094 6.0609375 -7.44921875 5.875 C-6.66893311 5.70742187 -5.88864746 5.53984375 -5.0847168 5.3671875 C-3 5 -3 5 0 5 C0 3.35 0 1.7 0 0 Z " fill="#E64A49" transform="translate(359,69)"/>
<path d="M0 0 C2.26111429 3.01481906 3.75033209 5.27872609 5.25 8.625 C5.60578125 9.40101563 5.9615625 10.17703125 6.328125 10.9765625 C7 13 7 13 6 15 C5.01 14.67 4.02 14.34 3 14 C3.09539062 14.68707031 3.19078125 15.37414062 3.2890625 16.08203125 C3.39992188 16.98308594 3.51078125 17.88414062 3.625 18.8125 C3.74101562 19.70582031 3.85703125 20.59914062 3.9765625 21.51953125 C4 24 4 24 2 27 C1.34 18.09 0.68 9.18 0 0 Z " fill="#E93939" transform="translate(406,209)"/>
<path d="M0 0 C0.5775 0.20625 1.155 0.4125 1.75 0.625 C-7.56702506 5.4799085 -15.92432761 7.99688568 -26.25 9.625 C-26.25 8.965 -26.25 8.305 -26.25 7.625 C-25.66508789 7.45371582 -25.08017578 7.28243164 -24.47753906 7.10595703 C-21.81719879 6.32452824 -19.1586005 5.53732659 -16.5 4.75 C-15.57960938 4.48058594 -14.65921875 4.21117188 -13.7109375 3.93359375 C-12.82148438 3.66933594 -11.93203125 3.40507813 -11.015625 3.1328125 C-10.19868164 2.89191895 -9.38173828 2.65102539 -8.54003906 2.40283203 C-6.22448854 1.68020238 -6.22448854 1.68020238 -4.09277344 0.50732422 C-2.25 -0.375 -2.25 -0.375 0 0 Z " fill="#E82F2E" transform="translate(402.25,115.375)"/>
<path d="M0 0 C-2.71315057 1.47402605 -5.07459595 2.34716812 -8.1171875 2.8515625 C-8.88933594 2.98046875 -9.66148437 3.109375 -10.45703125 3.2421875 C-11.25496094 3.36851562 -12.05289062 3.49484375 -12.875 3.625 C-14.06029297 3.82609375 -14.06029297 3.82609375 -15.26953125 4.03125 C-19.56054677 4.7309497 -23.63585543 5.15435881 -28 5 C-27.67 4.34 -27.34 3.68 -27 3 C-24.453125 2.3671875 -24.453125 2.3671875 -21.25 1.875 C-20.20328125 1.70742187 -19.1565625 1.53984375 -18.078125 1.3671875 C-15 1 -15 1 -12.265625 1.01171875 C-9.89479579 1.14535661 -9.89479579 1.14535661 -7.5 -0.0625 C-4.55071197 -1.16848301 -2.98288469 -0.85225277 0 0 Z " fill="#DB2826" transform="translate(332,133)"/>
<path d="M0 0 C0.33 0.99 0.66 1.98 1 3 C0.20335937 3.52787109 0.20335937 3.52787109 -0.609375 4.06640625 C-4.29249686 6.64055893 -7.19155859 8.78687003 -9.3125 12.8125 C-11 16 -11 16 -14 17 C-12.428995 10.01775557 -7.87249074 4.95573837 -2.0625 1 C-1.381875 0.67 -0.70125 0.34 0 0 Z " fill="#A52223" transform="translate(129,348)"/>
<path d="M0 0 C0 0.33 0 0.66 0 1 C-8.7784452 3.04404545 -17.03898756 3.21767642 -26 3 C-26 2.67 -26 2.34 -26 2 C-8.14350797 -1.62870159 -8.14350797 -1.62870159 0 0 Z " fill="#B62B2D" transform="translate(181,337)"/>
<path d="M0 0 C2.97 0 5.94 0 9 0 C11.43230253 6.38479413 12.32489668 11.17716964 12 18 C11.67 18 11.34 18 11 18 C10.01 13.05 9.02 8.1 8 3 C5.36 3 2.72 3 0 3 C0 2.01 0 1.02 0 0 Z M8 18 C11 19 11 19 11 19 Z " fill="#E21619" transform="translate(349,57)"/>
<path d="M0 0 C0.99 0.495 0.99 0.495 2 1 C2.53454033 3.62815663 2.93406721 6.15727071 3.25 8.8125 C3.353125 9.53759766 3.45625 10.26269531 3.5625 11.00976562 C4.04937826 14.92269164 4.32854597 17.68964173 2 21 C-0.21211746 13.94887561 -0.20177072 7.35342179 0 0 Z " fill="#AC2E30" transform="translate(110,192)"/>
<path d="M0 0 C0.66 0 1.32 0 2 0 C1.92007813 0.73863281 1.84015625 1.47726563 1.7578125 2.23828125 C2.07340511 5.83705503 3.25265603 6.77513019 5.875 9.1875 C6.59429687 9.86167969 7.31359375 10.53585938 8.0546875 11.23046875 C8.69664062 11.81441406 9.33859375 12.39835938 10 13 C10.66 13.66 11.32 14.32 12 15 C6.62519878 14.34936617 4.19258084 11.94172727 0.5390625 8.14453125 C-1 6 -1 6 -1 2.5 C-0.67 1.675 -0.34 0.85 0 0 Z " fill="#A91B1B" transform="translate(122,145)"/>
<path d="M0 0 C0.99 0.33 1.98 0.66 3 1 C0.52924585 6.09593044 -3.43896519 9.74336862 -8 13 C-10.25390625 13.703125 -10.25390625 13.703125 -12 14 C-11.29875 13.29875 -10.5975 12.5975 -9.875 11.875 C-9.42382812 11.42125 -8.97265625 10.9675 -8.5078125 10.5 C-7.47119429 9.46875287 -6.42361957 8.44843978 -5.3671875 7.4375 C-1.98354666 4.18962826 -1.98354666 4.18962826 0 0 Z " fill="#E43230" transform="translate(403,333)"/>
<path d="M0 0 C0 0.66 0 1.32 0 2 C-2.26860837 2.5304408 -4.53998489 3.04905434 -6.8125 3.5625 C-8.70935547 3.99755859 -8.70935547 3.99755859 -10.64453125 4.44140625 C-14 5 -14 5 -17 4 C-10.9978711 1.34521222 -6.65418604 -0.1512315 0 0 Z " fill="#A91D1D" transform="translate(154,341)"/>
<path d="M0 0 C0.66 0.33 1.32 0.66 2 1 C0.59106853 2.63171123 -0.82745958 4.25513945 -2.25 5.875 C-3.03890625 6.77992188 -3.8278125 7.68484375 -4.640625 8.6171875 C-6.74691403 10.74439993 -8.25651526 11.90512306 -11 13 C-11 10 -11 10 -9.35546875 8.28125 C-8.64003906 7.6934375 -7.92460937 7.105625 -7.1875 6.5 C-4.67995122 4.41722724 -2.26646761 2.34511475 0 0 Z " fill="#DC2626" transform="translate(390,271)"/>
<path d="M0 0 C0.33 0 0.66 0 1 0 C1.05397335 2.4377963 1.09365616 4.87439685 1.125 7.3125 C1.14175781 8.00279297 1.15851563 8.69308594 1.17578125 9.40429688 C1.21217794 13.17135396 1.14378864 14.78431704 -1 18 C-2.29534145 13.14246955 -2.49915868 7.9915868 -2 3 C-1.34 2.01 -0.68 1.02 0 0 Z " fill="#E93A37" transform="translate(423,295)"/>
<path d="M0 0 C1 3 1 3 -0.36328125 6.3203125 C-1.00267748 7.59378775 -1.65287331 8.86188505 -2.3125 10.125 C-2.63412109 10.77082031 -2.95574219 11.41664063 -3.28710938 12.08203125 C-5.72829433 16.86414717 -5.72829433 16.86414717 -8 18 C-6.10463724 11.48180123 -3.4821006 5.82185199 0 0 Z " fill="#1D0A19" transform="translate(147,205)"/>
<path d="M0 0 C0.99 0.33 1.98 0.66 3 1 C2.979375 1.969375 2.95875 2.93875 2.9375 3.9375 C2.64381501 6.87465895 2.64381501 6.87465895 4 8 C4.04080783 9.99958364 4.04254356 12.00045254 4 14 C2.68 14.33 1.36 14.66 0 15 C0 10.05 0 5.1 0 0 Z " fill="#EA2A25" transform="translate(407,42)"/>
<path d="M0 0 C1.11375 0.4640625 1.11375 0.4640625 2.25 0.9375 C2.25 1.2675 2.25 1.5975 2.25 1.9375 C-3.69 2.4325 -3.69 2.4325 -9.75 2.9375 C-10.08 1.9475 -10.41 0.9575 -10.75 -0.0625 C-6.46068418 -2.66672747 -4.48588856 -1.73318422 0 0 Z " fill="#ECDFE0" transform="translate(231.75,325.0625)"/>
<path d="M0 0 C3.25696479 0.41755959 4.63443291 0.63443291 7 3 C6.625 5.625 6.625 5.625 6 8 C5.34 7.67 4.68 7.34 4 7 C4 5.68 4 4.36 4 3 C0.44219804 3.60990891 -2.6828589 4.5783681 -6 6 C-4 4 -2 2 0 0 Z " fill="#E73231" transform="translate(411,16)"/>
<path d="M0 0 C0.33 0 0.66 0 1 0 C3.29612756 13.6332574 3.29612756 13.6332574 3 20 C2.67 20 2.34 20 2 20 C1.32741333 17.66836622 0.66152556 15.3347961 0 13 C-0.1959375 12.360625 -0.391875 11.72125 -0.59375 11.0625 C-1.07068379 8.64114384 -0.8856433 6.69152718 -0.5625 4.25 C-0.46066406 3.45078125 -0.35882813 2.6515625 -0.25390625 1.828125 C-0.17011719 1.22484375 -0.08632813 0.6215625 0 0 Z " fill="#EE5352" transform="translate(421,250)"/>
<path d="M0 0 C0.99 0 1.98 0 3 0 C3 5.28 3 10.56 3 16 C2.67 16 2.34 16 2 16 C1.66259915 14.08404518 1.33023588 12.16720278 1 10.25 C0.814375 9.18265625 0.62875 8.1153125 0.4375 7.015625 C0 4 0 4 0 0 Z " fill="#E93530" transform="translate(415,83)"/>
<path d="M0 0 C0.97582031 0.00902344 1.95164062 0.01804688 2.95703125 0.02734375 C3.69308594 0.03894531 4.42914063 0.05054688 5.1875 0.0625 C4.8575 0.7225 4.5275 1.3825 4.1875 2.0625 C-0.76127422 3.11640562 -5.92302208 3.52934337 -10.8125 2.0625 C-10.8125 1.7325 -10.8125 1.4025 -10.8125 1.0625 C-7.13862505 0.20951624 -3.7677607 -0.04539471 0 0 Z " fill="#E33F3E" transform="translate(328.8125,45.9375)"/>
<path d="M0 0 C0.66 0.33 1.32 0.66 2 1 C-1.43361902 4.63559661 -4.7973607 7.36113346 -9 10 C-7.61811547 6.78956118 -6.07578097 4.95063635 -3.375 2.75 C-2.74335938 2.22921875 -2.11171875 1.7084375 -1.4609375 1.171875 C-0.73777344 0.59179688 -0.73777344 0.59179688 0 0 Z " fill="#B41C1F" transform="translate(149,99)"/>
<path d="M0 0 C0.33 0 0.66 0 1 0 C1.38133299 1.9914056 1.71325582 3.99279077 2 6 C1.67 6.33 1.34 6.66 1 7 C0.76321284 9.69235776 0.57801975 12.36498156 0.4375 15.0625 C0.39431641 15.82111328 0.35113281 16.57972656 0.30664062 17.36132812 C0.20026367 19.24065438 0.09960066 21.12030244 0 23 C-0.33 23 -0.66 23 -1 23 C-1.02706445 20.10410348 -1.04687029 17.20846205 -1.0625 14.3125 C-1.07087891 13.49587891 -1.07925781 12.67925781 -1.08789062 11.83789062 C-1.10442051 7.75500916 -1.03035098 3.98348293 0 0 Z " fill="#3C0C16" transform="translate(136,231)"/>
<path d="M0 0 C2.9512645 1.47563225 3.06923915 3.50079352 4.125 6.5625 C4.47820312 7.57441406 4.83140625 8.58632812 5.1953125 9.62890625 C5.46085937 10.41136719 5.72640625 11.19382813 6 12 C5.01 12.495 5.01 12.495 4 13 C3.32404685 11.58774074 2.65959941 10.16997095 2 8.75 C1.62875 7.96109375 1.2575 7.1721875 0.875 6.359375 C0 4 0 4 0 0 Z " fill="#AB2528" transform="translate(120,233)"/>
<path d="M0 0 C0.66 0.33 1.32 0.66 2 1 C0.44288747 4.11422506 -1.84690151 4.7266333 -5 6 C-7.875 5.6875 -7.875 5.6875 -10 5 C-6.76527494 2.84351662 -3.62848922 1.38542316 0 0 Z " fill="#EC3F3D" transform="translate(397,61)"/>
<path d="M0 0 C1.60725635 3.21451269 1.05748185 6.43612536 1 10 C0.67 10 0.34 10 0 10 C0 8.35 0 6.7 0 5 C-1.32 4.34 -2.64 3.68 -4 3 C-4 2.34 -4 1.68 -4 1 C-2 0 -2 0 0 0 Z " fill="#F9CDCA" transform="translate(407,41)"/>
<path d="M0 0 C0.6875 1.6875 0.6875 1.6875 1 4 C-0.25 6.6875 -0.25 6.6875 -2 9 C-2.99 9.33 -3.98 9.66 -5 10 C-3.84414715 6.08788267 -2.64465038 3.1254959 0 0 Z " fill="#A62A2C" transform="translate(120,355)"/>
<path d="M0 0 C-2.96178773 1.67110042 -5.37071192 2.32682752 -8.75 2.625 C-9.54921875 2.69976562 -10.3484375 2.77453125 -11.171875 2.8515625 C-11.77515625 2.90054688 -12.3784375 2.94953125 -13 3 C-13 2.34 -13 1.68 -13 1 C-4.57142857 -1.42857143 -4.57142857 -1.42857143 0 0 Z " fill="#E73736" transform="translate(375,125)"/>
<path d="M0 0 C-3.82517513 2.39073445 -7.59665524 2.55966552 -12 3 C-11.01 2.67 -10.02 2.34 -9 2 C-9 1.34 -9 0.68 -9 0 C-5.67465243 -1.10844919 -3.37817425 -0.84454356 0 0 Z " fill="#E55250" transform="translate(332,133)"/>
<path d="M0 0 C1.98 0 3.96 0 6 0 C6.33 0.66 6.66 1.32 7 2 C3.0186217 3.3271261 -0.85045227 3.06915913 -5 3 C-5 2.67 -5 2.34 -5 2 C-3.35 2 -1.7 2 0 2 C0 1.34 0 0.68 0 0 Z " fill="#E22625" transform="translate(340,59)"/>
<path d="M0 0 C-1.32 0.33 -2.64 0.66 -4 1 C-4 1.66 -4 2.32 -4 3 C-6.57856865 3.92091738 -7.5943287 4.18506902 -10.140625 3.0234375 C-10.75421875 2.68570313 -11.3678125 2.34796875 -12 2 C-10.37787941 1.47026689 -8.75218416 0.95146893 -7.125 0.4375 C-6.22007812 0.14746094 -5.31515625 -0.14257812 -4.3828125 -0.44140625 C-2 -1 -2 -1 0 0 Z " fill="#E95350" transform="translate(382,33)"/>
<path d="M0 0 C-4.33420699 2.03165952 -8.28596212 2.52060632 -13 3 C-8.8341563 0.22277086 -4.9360889 -1.89849573 0 0 Z " fill="#EDC8CA" transform="translate(155,433)"/>
<path d="M0 0 C1.98 0.66 3.96 1.32 6 2 C6 2.99 6 3.98 6 5 C4.125 4.75 4.125 4.75 2 4 C0.75 1.9375 0.75 1.9375 0 0 Z " fill="#A42327" transform="translate(115,443)"/>
<path d="M0 0 C1.32 0.33 2.64 0.66 4 1 C4 1.99 4 2.98 4 4 C3.4225 3.79375 2.845 3.5875 2.25 3.375 C-0.51967567 2.91338739 -1.64561267 3.57055055 -4 5 C-2.68 3.35 -1.36 1.7 0 0 Z " fill="#F6E6E8" transform="translate(138,130)"/>
<path d="M0 0 C2.97 0 5.94 0 9 0 C9 0.99 9 1.98 9 3 C6.03 3 3.06 3 0 3 C0 2.01 0 1.02 0 0 Z " fill="#E22F2F" transform="translate(349,57)"/>
<path d="M0 0 C0.66 0 1.32 0 2 0 C2.33 2.31 2.66 4.62 3 7 C2.01 7 1.02 7 0 7 C0 4.69 0 2.38 0 0 Z " fill="#D42628" transform="translate(306,378)"/>
<path d="M0 0 C0 0.66 0 1.32 0 2 C-4.455 2.495 -4.455 2.495 -9 3 C-5.92807025 0.26939578 -4.09590633 -0.34132553 0 0 Z " fill="#D33637" transform="translate(302,369)"/>
<path d="M0 0 C0.66 0.66 1.32 1.32 2 2 C0.35 3.32 -1.3 4.64 -3 6 C-3.99 5.34 -4.98 4.68 -6 4 C-5.195625 3.525625 -4.39125 3.05125 -3.5625 2.5625 C-1.15246512 1.23099846 -1.15246512 1.23099846 0 0 Z " fill="#E02B2A" transform="translate(390,347)"/>
<path d="M0 0 C-1 3 -1 3 -4.0625 4.6875 C-5.031875 5.120625 -6.00125 5.55375 -7 6 C-5.52522876 2.59668175 -4.14385429 0 0 0 Z " fill="#BE1D1E" transform="translate(182,171)"/>
<path d="M0 0 C-2.17424117 2.50037734 -3.73045798 3.43628586 -7 4 C-7 3.01 -7 2.02 -7 1 C-3.375 -1.125 -3.375 -1.125 0 0 Z " fill="#F6EEED" transform="translate(195,73)"/>
<path d="M0 0 C0.33 0.99 0.66 1.98 1 3 C-2.465 4.485 -2.465 4.485 -6 6 C-4.95125002 3.37812506 -4.35068687 2.20628639 -1.875 0.75 C-1.25625 0.5025 -0.6375 0.255 0 0 Z " fill="#E8352D" transform="translate(402,40)"/>
</svg>
